<svg width="576" height="200" viewBox="0 0 576 200" fill="none" xmlns="http://www.w3.org/2000/svg">
<g clip-path="url(#clip0_37_24)">
<path d="M9 9L190 190M85.1105 85.1105C83.4288 86.7922 81.4324 88.1262 79.2352 89.0363C77.038 89.9464 74.683 90.4148 72.3048 90.4148C69.9265 90.4148 67.5715 89.9464 65.3743 89.0363C63.1771 88.1262 61.1807 86.7922 59.499 85.1105C57.8173 83.4288 56.4833 81.4324 55.5732 79.2352C54.6631 77.038 54.1947 74.683 54.1947 72.3048C54.1947 69.9265 54.6631 67.5715 55.5732 65.3743C56.4833 63.1771 57.8173 61.1807 59.499 59.499M113.075 113.075L45.2 180.95M153.8 99.5L180.95 126.65" stroke="#F0F0F0" stroke-width="15" stroke-linecap="round" stroke-linejoin="round"/>
<path d="M23.3894 23.3894C21.7023 25.0595 20.362 27.0466 19.4456 29.2365C18.5293 31.4265 18.0549 33.776 18.0499 36.1499V162.85C18.0499 167.65 19.9568 172.254 23.3512 175.648C26.7456 179.043 31.3494 180.95 36.1499 180.95H162.85C167.827 180.95 172.37 178.959 175.61 175.61M180.95 126.65V36.1499C180.95 31.3494 179.043 26.7456 175.648 23.3512C172.254 19.9568 167.65 18.0499 162.85 18.0499H72.3499" stroke="#F0F0F0" stroke-width="15" stroke-linecap="round" stroke-linejoin="round"/>
<path d="M220.888 80V22.04H249.112C258.52 22.04 263.224 26.744 263.224 36.152V47.408C263.224 56.816 258.52 61.52 249.112 61.52H232.984V80H220.888ZM232.984 50.6H248.608C250.288 50.6 251.128 49.76 251.128 48.08V35.48C251.128 33.8 250.288 32.96 248.608 32.96H232.984V50.6ZM273.278 80V41.36C275.35 37.552 279.326 35.648 285.206 35.648H294.278L299.318 39.428V45.728H288.314C286.634 45.728 285.486 46.148 284.87 46.988V80H273.278ZM306.903 66.392V49.256C306.903 40.184 311.439 35.648 320.511 35.648H332.271C341.343 35.648 345.879 40.184 345.879 49.256V66.392C345.879 75.464 341.343 80 332.271 80H320.511C311.439 80 306.903 75.464 306.903 66.392ZM318.495 67.232C318.495 69.024 319.391 69.92 321.183 69.92H331.599C333.391 69.92 334.287 69.024 334.287 67.232V48.416C334.287 46.624 333.391 45.728 331.599 45.728H321.183C319.391 45.728 318.495 46.624 318.495 48.416V67.232ZM352.75 37.412L353.926 35.648H363.922L374.17 69.92H375.01L385.258 35.648H395.254L396.43 37.412L377.866 96.8H367.87L366.694 95.036L371.734 80H366.106L352.75 37.412ZM403.29 66.392V49.256C403.29 40.184 407.826 35.648 416.898 35.648H427.818C436.89 35.648 441.426 40.184 441.426 49.256V62.108H414.882V67.232C414.882 69.024 415.778 69.92 417.57 69.92H439.746V76.22L434.706 80H416.898C407.826 80 403.29 75.464 403.29 66.392ZM414.882 53.204H429.834V48.416C429.834 46.624 428.938 45.728 427.146 45.728H417.57C415.778 45.728 414.882 46.624 414.882 48.416V53.204ZM452.181 66.392V49.256C452.181 40.184 456.717 35.648 465.789 35.648H481.413L486.453 39.428V45.728H466.461C464.669 45.728 463.773 46.624 463.773 48.416V67.232C463.773 69.024 464.669 69.92 466.461 69.92H486.453V76.22L481.413 80H465.789C456.717 80 452.181 75.464 452.181 66.392ZM495.993 66.392V22.04H507.585V35.648H522.033V45.728H507.585V67.232C507.585 69.024 508.481 69.92 510.273 69.92H522.873V76.22L517.833 80H509.601C500.529 80 495.993 75.464 495.993 66.392ZM531.259 66.392V49.256C531.259 40.184 535.795 35.648 544.867 35.648H556.627C565.699 35.648 570.235 40.184 570.235 49.256V66.392C570.235 75.464 565.699 80 556.627 80H544.867C535.795 80 531.259 75.464 531.259 66.392ZM542.851 67.232C542.851 69.024 543.747 69.92 545.539 69.92H555.955C557.747 69.92 558.643 69.024 558.643 67.232V48.416C558.643 46.624 557.747 45.728 555.955 45.728H545.539C543.747 45.728 542.851 46.624 542.851 48.416V67.232Z" fill="#F0F0F0"/>
<path d="M218.368 163.632V157.08H244.408C246.088 157.08 246.928 156.24 246.928 154.56V148.512C246.928 146.888 246.228 145.964 244.828 145.74L228.448 142.38C221.728 141.036 218.368 136.528 218.368 128.856V124.152C218.368 114.744 223.072 110.04 232.48 110.04H251.716L257.344 114.408V120.96H232.984C231.304 120.96 230.464 121.8 230.464 123.48V128.94C230.464 130.508 231.164 131.432 232.564 131.712L248.944 134.988C255.664 136.332 259.024 140.84 259.024 148.512V153.888C259.024 163.296 254.32 168 244.912 168H223.996L218.368 163.632ZM269.179 116.34V105H281.275V116.34H269.179ZM269.431 168V123.648H281.023V168H269.431ZM293.138 168V123.648H317.666C326.738 123.648 331.274 128.184 331.274 137.256V168H319.682V136.416C319.682 134.624 318.786 133.728 316.994 133.728H304.73V168H293.138ZM364.033 168V110.04H376.129V157.08H401.161V168H364.033ZM408.54 154.392V137.256C408.54 128.184 413.076 123.648 422.148 123.648H433.908C442.98 123.648 447.516 128.184 447.516 137.256V154.392C447.516 163.464 442.98 168 433.908 168H422.148C413.076 168 408.54 163.464 408.54 154.392ZM420.132 155.232C420.132 157.024 421.028 157.92 422.82 157.92H433.236C435.028 157.92 435.924 157.024 435.924 155.232V136.416C435.924 134.624 435.028 133.728 433.236 133.728H422.82C421.028 133.728 420.132 134.624 420.132 136.416V155.232ZM457.915 154.392V137.256C457.915 128.184 462.451 123.648 471.523 123.648H496.051V171.192C496.051 180.264 491.515 184.8 482.443 184.8H466.735L461.695 181.02V174.72H481.771C483.563 174.72 484.459 173.824 484.459 172.032V168H471.523C462.451 168 457.915 163.464 457.915 154.392ZM469.507 155.232C469.507 157.024 470.403 157.92 472.195 157.92H484.459V133.728H472.195C470.403 133.728 469.507 134.624 469.507 136.416V155.232ZM507.142 154.392V137.256C507.142 128.184 511.678 123.648 520.75 123.648H532.51C541.582 123.648 546.118 128.184 546.118 137.256V154.392C546.118 163.464 541.582 168 532.51 168H520.75C511.678 168 507.142 163.464 507.142 154.392ZM518.734 155.232C518.734 157.024 519.63 157.92 521.422 157.92H531.838C533.63 157.92 534.526 157.024 534.526 155.232V136.416C534.526 134.624 533.63 133.728 531.838 133.728H521.422C519.63 133.728 518.734 134.624 518.734 136.416V155.232Z" fill="#F0F0F0"/>
</g>
<defs>
<clipPath id="clip0_37_24">
<rect width="576" height="200" fill="white"/>
</clipPath>
</defs>
</svg>
