<svg width="128" height="128" viewBox="0 0 128 128" fill="none" xmlns="http://www.w3.org/2000/svg">
<path d="M6 6L122 122M54.778 54.778C53.7002 55.8558 52.4208 56.7107 51.0126 57.294C49.6044 57.8772 48.0952 58.1775 46.571 58.1775C45.0468 58.1775 43.5376 57.8772 42.1294 57.294C40.7212 56.7107 39.4418 55.8558 38.364 54.778C37.2862 53.7002 36.4313 52.4208 35.848 51.0126C35.2648 49.6044 34.9646 48.0952 34.9646 46.571C34.9646 45.0468 35.2648 43.5376 35.848 42.1294C36.4313 40.7212 37.2862 39.4418 38.364 38.364M72.7 72.7L29.2 116.2M98.8 64L116.2 81.4" stroke="#F0F0F0" stroke-width="10" stroke-linecap="round" stroke-linejoin="round"/>
<path d="M15.2219 15.2219C14.1407 16.2923 13.2817 17.5658 12.6945 18.9693C12.1072 20.3728 11.8032 21.8785 11.7999 23.3999V104.6C11.7999 107.676 13.0221 110.627 15.1975 112.802C17.3729 114.978 20.3234 116.2 23.3999 116.2H104.6C107.79 116.2 110.702 114.924 112.778 112.778M116.2 81.3999V23.3999C116.2 20.3234 114.978 17.3729 112.802 15.1975C110.627 13.0221 107.676 11.7999 104.6 11.7999H46.5999" stroke="#F0F0F0" stroke-width="10" stroke-linecap="round" stroke-linejoin="round"/>
</svg>
