<svg width="206" height="128" viewBox="0 0 206 128" fill="none" xmlns="http://www.w3.org/2000/svg">
  <path d="M97.05 117.35C96.25 115.85 94.85 114.35 92.85 112.85C90.85 111.25 88.45 109.7 85.65 108.2C82.85 106.7 79.85 105.25 76.65 103.85C73.45 102.45 70.3 101.1 67.2 99.8C64.1 98.4 61.2 97.1 58.5 95.9C56.6 95.1 54.95 94.3 53.55 93.5C56.45 95.2 59.5 96.75 62.7 98.15C66.4 99.85 70.1 101.6 73.8 103.4C77.6 105.2 81.25 107.1 84.75 109.1C88.25 111.1 91.45 113.4 94.35 116C91.45 115.2 87.8 113.9 83.4 112.1C79 110.2 74.5 108.15 69.9 105.95C65.4 103.65 61 101.35 56.7 99.05C52.5 96.75 49.1 94.75 46.5 93.05L47.55 91.7C44.75 89.8 41.9 87.6 39 85.1C36.1 82.6 33.85 79.85 32.25 76.85C31.15 81.55 30.5 86.05 30.3 90.35C30.1 94.65 30 98.75 30 102.65C30 104.05 30.35 105.4 31.05 106.7C31.75 107.9 32.1 109.05 32.1 110.15C32.1 111.65 31.4 112.55 30 112.85C29.2 110.95 28.6 109.05 28.2 107.15C27.8 105.25 27.5 103.35 27.3 101.45C27.3 103.45 27.4 105.4 27.6 107.3C27.9 109.3 28.4 111.3 29.1 113.3L26.85 114.2L28.2 116C28 117.1 27.55 118.15 26.85 119.15C26.25 120.05 25.3 120.5 24 120.5C22.4 120.5 21.1 119.65 20.1 117.95C19.2 116.15 18.45 114.05 17.85 111.65C17.35 109.15 17 106.65 16.8 104.15C16.7 101.55 16.65 99.4 16.65 97.7C16.65 94.3 16.65 90.95 16.65 87.65C16.75 84.35 16.9 81 17.1 77.6C16.6 80.8 16.3 84.05 16.2 87.35C16.2 90.65 16.2 93.95 16.2 97.25C16.2 100.75 16.4 104.35 16.8 108.05C17.2 111.75 17.8 115.3 18.6 118.7C17.3 117.5 16.3 116.15 15.6 114.65C15 113.15 14.5 111.6 14.1 110C13.8 108.3 13.55 106.6 13.35 104.9C13.25 103.2 13.15 101.55 13.05 99.95L14.85 99.5C14.45 98 14.2 96.5 14.1 95C14 93.4 13.95 91.8 13.95 90.2C13.95 86.7 14.2 83.3 14.7 80C15.2 76.6 15.45 73.15 15.45 69.65V67.85L15.3 64.1H14.4C14.2 68.9 13.9 73.7 13.5 78.5C13.2 83.3 13 88.15 12.9 93.05C12.8 92.05 12.75 91.1 12.75 90.2V87.35C12.75 80.05 13.1 72.9 13.8 65.9C14.6 58.8 15.4 51.65 16.2 44.45C16.4 42.15 17 40.05 18 38.15C19 36.15 19.8 34.1 20.4 32C20.8 32.3 21.3 32.5 21.9 32.6C22.5 32.6 23.05 32.65 23.55 32.75C24.05 32.75 24.5 32.9 24.9 33.2C25.3 33.5 25.5 34 25.5 34.7C25.5 35.1 25.45 35.5 25.35 35.9L25.05 37.1L26.4 37.55C27.1 36.45 28 35.4 29.1 34.4C30.2 33.4 31.45 32.9 32.85 32.9C33.95 32.9 34.75 33.35 35.25 34.25C35.75 35.15 36 36.1 36 37.1C36 37.7 35.9 38.95 35.7 40.85C35.6 42.75 35.4 44.95 35.1 47.45C34.9 49.95 34.65 52.65 34.35 55.55C34.05 58.35 33.75 61 33.45 63.5C33.25 66 33.05 68.15 32.85 69.95C32.65 71.65 32.55 72.7 32.55 73.1L36.15 65C35.85 65.9 35.55 66.65 35.25 67.25C35.05 67.85 34.85 68.45 34.65 69.05C34.45 69.65 34.15 70.3 33.75 71C33.45 71.7 33 72.6 32.4 73.7V75.8L37.35 64.55C38.95 64.55 40.5 64.55 42 64.55C43.6 64.45 45.2 64.25 46.8 63.95L48.3 63.65C46.1 63.65 44.35 63.65 43.05 63.65C41.85 63.55 40.7 63.4 39.6 63.2C43.6 63.2 47.55 63.15 51.45 63.05C55.45 62.85 59.5 62.75 63.6 62.75C67.2 62.75 70.75 62.65 74.25 62.45C77.85 62.25 81.05 61.55 83.85 60.35C86.75 59.15 89.1 57.3 90.9 54.8C92.7 52.3 93.6 48.75 93.6 44.15C93.6 39.45 93 35.65 91.8 32.75C90.6 29.85 88.85 27.6 86.55 26C84.35 24.3 81.55 23.2 78.15 22.7C74.75 22.1 70.9 21.8 66.6 21.8C57.8 21.8 48.95 22.2 40.05 23C31.15 23.8 22.45 25.3 13.95 27.5C13.75 26.7 13.6 26 13.5 25.4C13.4 24.7 13.15 24.1 12.75 23.6C12.75 23 13.3 22.45 14.4 21.95C15.5 21.45 16.75 21.05 18.15 20.75C19.55 20.45 20.85 20.2 22.05 20C23.35 19.8 24.2 19.65 24.6 19.55V17.75C23.9 17.85 22.7 17.95 21 18.05C19.3 18.15 17.45 18.2 15.45 18.2C12.75 18.2 10.25 18.05 7.95 17.75C5.65 17.35 4.5 16.6 4.5 15.5C4.5 14.3 5.8 13.15 8.4 12.05C11.1 10.95 14.5 9.95 18.6 9.05C22.7 8.05 27.2 7.2 32.1 6.49999C37 5.8 41.7 5.2 46.2 4.69999C50.8 4.09999 54.85 3.69999 58.35 3.5C61.95 3.19999 64.45 3.04999 65.85 3.04999C73.05 3.04999 79.55 3.79999 85.35 5.29999C91.15 6.69999 96.05 9.04999 100.05 12.35C104.15 15.65 107.25 20 109.35 25.4C111.55 30.7 112.65 37.25 112.65 45.05C112.65 51.55 111.4 57.1 108.9 61.7C106.5 66.2 103.25 69.9 99.15 72.8C95.05 75.6 90.35 77.7 85.05 79.1C79.75 80.4 74.25 81.05 68.55 81.05C66.95 81.05 65.35 81 63.75 80.9C62.25 80.8 60.7 80.7 59.1 80.6C60.2 81.3 62 82.25 64.5 83.45C67.1 84.65 69.95 86 73.05 87.5C76.25 89 79.55 90.6 82.95 92.3C86.45 93.9 89.6 95.5 92.4 97.1C95.2 98.6 97.5 100.05 99.3 101.45C101.1 102.75 102 103.8 102 104.6L101.25 105.5C97.95 103.1 94.55 101 91.05 99.2C87.55 97.4 83.95 95.7 80.25 94.1C76.65 92.5 73 90.95 69.3 89.45C65.8 87.95 62.3 86.2 58.8 84.2C62.2 86.2 65.6 87.95 69 89.45L79.65 94.25C83.25 95.85 86.75 97.55 90.15 99.35C93.65 101.05 97 103.1 100.2 105.5L98.25 107.3C98.95 107.8 99.75 108.5 100.65 109.4C101.65 110.2 102.55 111.1 103.35 112.1C104.25 113.1 105 114.15 105.6 115.25C106.2 116.25 106.5 117.2 106.5 118.1C106.5 119.4 105.9 120.05 104.7 120.05C103.5 120.05 102.2 119.7 100.8 119C99.4 118.3 98.15 117.75 97.05 117.35ZM64.35 63.65C62.35 63.65 60.25 63.7 58.05 63.8C55.95 63.8 53.8 63.8 51.6 63.8C54.1 63.9 56.7 64.05 59.4 64.25C62.1 64.35 64.85 64.4 67.65 64.4C71.15 64.4 74.55 64.2 77.85 63.8C81.25 63.3 84.25 62.35 86.85 60.95C89.45 59.45 91.5 57.45 93 54.95C94.6 52.35 95.4 48.95 95.4 44.75C95.4 43.35 95.3 42 95.1 40.7C94.9 39.4 94.65 38.05 94.35 36.65H93.45C94.05 39.05 94.35 41.5 94.35 44C94.35 48.5 93.55 52.05 91.95 54.65C90.35 57.25 88.2 59.25 85.5 60.65C82.8 61.95 79.6 62.8 75.9 63.2C72.3 63.5 68.45 63.65 64.35 63.65ZM37.8 66.95C41.8 67.15 45.85 67.3 49.95 67.4C54.15 67.4 58.45 67.4 62.85 67.4C65.45 67.4 68.05 67.35 70.65 67.25C73.25 67.05 75.75 66.7 78.15 66.2C77.05 66.4 75.95 66.5 74.85 66.5H71.7C70.5 66.5 69.05 66.5 67.35 66.5C65.65 66.4 63.8 66.3 61.8 66.2C59.8 66.1 57.7 66.05 55.5 66.05C53.3 65.95 51.15 65.9 49.05 65.9C46.75 65.9 44.65 65.95 42.75 66.05C40.85 66.15 39.2 66.45 37.8 66.95ZM32.1 78.5C34.1 81.1 36.1 83.55 38.1 85.85C40.2 88.05 42.55 90.15 45.15 92.15C42.75 90.45 40.3 88.4 37.8 86C35.4 83.6 33.5 81.1 32.1 78.5ZM54.3 77.3C56.3 77.5 58.3 77.65 60.3 77.75C62.2 77.85 64 77.95 65.7 78.05C64.3 77.95 62.9 77.8 61.5 77.6C59.9 77.3 58.3 77.15 56.7 77.15H55.5C55.1 77.15 54.7 77.2 54.3 77.3ZM37.35 66.95C37.25 67.25 36.95 67.85 36.45 68.75C36.05 69.65 35.6 70.65 35.1 71.75C34.7 72.75 34.3 73.7 33.9 74.6C33.5 75.5 33.3 76.1 33.3 76.4L33.6 76.1L37.35 67.4V66.95ZM52.95 80.15H52.5C53.9 81.25 55.5 82.3 57.3 83.3L52.95 80.15ZM34.5 77.6C34.7 78.1 35 78.7 35.4 79.4C35.9 80 36.5 80.65 37.2 81.35C36.6 80.65 36.1 79.95 35.7 79.25C35.3 78.45 35 77.7 34.8 77L34.5 77.6ZM52.2 92.75C52.5 92.95 52.75 93.1 52.95 93.2L52.2 92.75ZM196.273 106.1C196.073 108.6 195.073 110.8 193.273 112.7C191.573 114.5 189.423 116.05 186.823 117.35C184.323 118.55 181.623 119.45 178.723 120.05C175.923 120.65 173.373 120.95 171.073 120.95C164.273 120.95 158.173 119.35 152.773 116.15C147.373 112.85 142.773 108.65 138.973 103.55C135.173 98.35 132.173 92.6 129.973 86.3C127.873 80.2 126.673 74.2 126.373 68.3C126.573 74.4 127.723 80.55 129.823 86.75C132.023 93.15 135.023 98.95 138.823 104.15C142.623 109.35 147.273 113.6 152.773 116.9C158.273 120.1 164.473 121.7 171.373 121.7C175.173 121.7 178.873 121.1 182.473 119.9C186.073 118.7 189.423 117.05 192.523 114.95C190.223 118.45 187.173 120.95 183.373 122.45C179.573 123.95 175.673 124.7 171.673 124.7C167.173 124.7 163.023 124.05 159.223 122.75C155.423 121.55 151.723 119.6 148.123 116.9L147.523 114.5C143.423 112 139.873 108.9 136.873 105.2C133.973 101.5 131.573 97.5 129.673 93.2C127.873 88.9 126.523 84.4 125.623 79.7C124.823 75 124.423 70.3 124.423 65.6C124.423 60.6 124.873 55.65 125.773 50.75C126.773 45.75 128.123 40.85 129.823 36.05C129.423 36.05 129.223 35.9 129.223 35.6C127.123 40.2 125.573 44.95 124.573 49.85C123.573 54.75 123.073 59.75 123.073 64.85C123.073 74.55 124.973 83.9 128.773 92.9C132.573 101.8 138.223 109.35 145.723 115.55C141.823 112.55 138.373 109.1 135.373 105.2C132.473 101.3 130.073 97.15 128.173 92.75C126.273 88.25 124.823 83.6 123.823 78.8C122.923 74 122.473 69.15 122.473 64.25C122.473 57.65 123.373 50.95 125.173 44.15C127.073 37.25 129.873 31 133.573 25.4C137.373 19.8 142.073 15.25 147.673 11.75C153.273 8.15 159.823 6.35 167.323 6.35C170.723 6.35 173.923 6.89999 176.923 7.99999C180.023 9.1 182.923 10.55 185.623 12.35C188.323 14.15 190.823 16.2 193.123 18.5C195.523 20.8 197.773 23.15 199.873 25.55L196.723 28.25C195.323 27.75 193.973 27 192.673 26C191.473 24.9 190.373 23.8 189.373 22.7L188.473 23.75C189.773 25.25 190.973 27 192.073 29C193.173 30.9 193.723 32.9 193.723 35L192.073 37.7C190.773 37.6 189.123 36.85 187.123 35.45C185.223 33.95 183.073 32.4 180.673 30.8C178.373 29.1 175.973 27.55 173.473 26.15C171.073 24.75 168.723 24.05 166.423 24.05C163.423 24.05 160.723 24.8 158.323 26.3C156.023 27.8 153.923 29.75 152.023 32.15C150.123 34.55 148.473 37.3 147.073 40.4C145.773 43.5 144.673 46.65 143.773 49.85C142.973 53.05 142.323 56.2 141.823 59.3C141.423 62.3 141.223 64.95 141.223 67.25C141.223 71.15 141.823 75.45 143.023 80.15C144.323 84.85 146.173 89.25 148.573 93.35C151.073 97.35 154.123 100.7 157.723 103.4C161.323 106.1 165.423 107.45 170.023 107.45C172.123 107.45 174.273 107.25 176.473 106.85C178.773 106.35 180.823 105.55 182.623 104.45L183.823 105.8C180.023 108.7 175.673 110.15 170.773 110.15C165.973 110.15 161.573 109 157.573 106.7C159.473 108 161.573 108.95 163.873 109.55C166.373 110.25 168.873 110.6 171.373 110.6C175.973 110.6 180.273 109.3 184.273 106.7L185.623 108.65C186.623 107.55 187.873 106.5 189.373 105.5C190.873 104.4 192.423 103.75 194.023 103.55L196.273 106.1ZM138.973 75.95C139.473 81.75 141.173 87.3 144.073 92.6C146.973 97.8 150.773 102 155.473 105.2C150.773 101.9 147.073 97.65 144.373 92.45C141.573 87.15 139.773 81.65 138.973 75.95Z"/>
  <style>
    path { fill: #222222; }
    @media (prefers-color-scheme: dark) {
      path { fill: #F0F0F0; }
    }
  </style>
</svg>
