<svg width="802" height="200" viewBox="0 0 802 200" fill="none" xmlns="http://www.w3.org/2000/svg">
<g clip-path="url(#clip0_10_167)">
<path d="M151.641 183.359C150.391 181.016 148.203 178.672 145.078 176.328C141.953 173.828 138.203 171.406 133.828 169.062C129.453 166.719 124.766 164.453 119.766 162.266C114.766 160.078 109.844 157.969 105 155.938C100.156 153.75 95.625 151.719 91.4062 149.844C88.4375 148.594 85.8594 147.344 83.6719 146.094C88.2031 148.75 92.9688 151.172 97.9688 153.359C103.75 156.016 109.531 158.75 115.313 161.562C121.25 164.375 126.953 167.344 132.422 170.469C137.891 173.594 142.891 177.187 147.422 181.25C142.891 180 137.188 177.969 130.312 175.156C123.438 172.187 116.406 168.984 109.219 165.547C102.188 161.953 95.3125 158.359 88.5938 154.766C82.0312 151.172 76.7188 148.047 72.6562 145.391L74.2969 143.281C69.9219 140.312 65.4688 136.875 60.9375 132.969C56.4062 129.062 52.8906 124.766 50.3906 120.078C48.6719 127.422 47.6562 134.453 47.3438 141.172C47.0312 147.891 46.875 154.297 46.875 160.391C46.875 162.578 47.4219 164.687 48.5156 166.719C49.6094 168.594 50.1562 170.391 50.1562 172.109C50.1562 174.453 49.0625 175.859 46.875 176.328C45.625 173.359 44.6875 170.391 44.0625 167.422C43.4375 164.453 42.9688 161.484 42.6562 158.516C42.6562 161.641 42.8125 164.688 43.125 167.656C43.5938 170.781 44.375 173.906 45.4688 177.031L41.9531 178.437L44.0625 181.25C43.75 182.969 43.0469 184.609 41.9531 186.172C41.0156 187.578 39.5312 188.281 37.5 188.281C35 188.281 32.9688 186.953 31.4062 184.297C30 181.484 28.8281 178.203 27.8906 174.453C27.1094 170.547 26.5625 166.641 26.25 162.734C26.0937 158.672 26.0156 155.312 26.0156 152.656C26.0156 147.344 26.0156 142.109 26.0156 136.953C26.1719 131.797 26.4062 126.562 26.7188 121.25C25.9375 126.25 25.4688 131.328 25.3125 136.484C25.3125 141.641 25.3125 146.797 25.3125 151.953C25.3125 157.422 25.625 163.047 26.25 168.828C26.875 174.609 27.8125 180.156 29.0625 185.469C27.0312 183.594 25.4688 181.484 24.375 179.141C23.4375 176.797 22.6563 174.375 22.0313 171.875C21.5625 169.219 21.1719 166.562 20.8594 163.906C20.7031 161.25 20.5469 158.672 20.3906 156.172L23.2031 155.469C22.5781 153.125 22.1875 150.781 22.0313 148.437C21.875 145.937 21.7969 143.437 21.7969 140.937C21.7969 135.469 22.1875 130.156 22.9688 125C23.75 119.687 24.1406 114.297 24.1406 108.828V106.016L23.9062 100.156H22.5C22.1875 107.656 21.7188 115.156 21.0938 122.656C20.625 130.156 20.3125 137.734 20.1562 145.391C20 143.828 19.9219 142.344 19.9219 140.937V136.484C19.9219 125.078 20.4688 113.906 21.5625 102.969C22.8125 91.875 24.0625 80.7031 25.3125 69.4531C25.625 65.8594 26.5625 62.5781 28.125 59.6094C29.6875 56.4844 30.9375 53.2812 31.875 50C32.5 50.4687 33.2812 50.7812 34.2188 50.9375C35.1562 50.9375 36.0156 51.0156 36.7969 51.1719C37.5781 51.1719 38.2812 51.4062 38.9062 51.875C39.5312 52.3437 39.8438 53.125 39.8438 54.2187C39.8438 54.8437 39.7656 55.4687 39.6094 56.0937L39.1406 57.9687L41.25 58.6719C42.3438 56.9531 43.75 55.3125 45.4688 53.75C47.1875 52.1875 49.1406 51.4062 51.3281 51.4062C53.0469 51.4062 54.2969 52.1094 55.0781 53.5156C55.8594 54.9219 56.25 56.4062 56.25 57.9687C56.25 58.9062 56.0938 60.8594 55.7812 63.8281C55.625 66.7969 55.3125 70.2344 54.8437 74.1406C54.5312 78.0469 54.1406 82.2656 53.6719 86.7969C53.2031 91.1719 52.7344 95.3125 52.2656 99.2187C51.9531 103.125 51.6406 106.484 51.3281 109.297C51.0156 111.953 50.8594 113.594 50.8594 114.219L56.4844 101.562C56.0156 102.969 55.5469 104.141 55.0781 105.078C54.7656 106.016 54.4531 106.953 54.1406 107.891C53.8281 108.828 53.3594 109.844 52.7344 110.937C52.2656 112.031 51.5625 113.437 50.625 115.156V118.437L58.3594 100.859C60.8594 100.859 63.2812 100.859 65.625 100.859C68.125 100.703 70.625 100.391 73.125 99.9219L75.4688 99.4531C72.0312 99.4531 69.2969 99.4531 67.2656 99.4531C65.3906 99.2969 63.5937 99.0625 61.875 98.75C68.125 98.75 74.2969 98.6719 80.3906 98.5156C86.6406 98.2031 92.9688 98.0469 99.375 98.0469C105 98.0469 110.547 97.8906 116.016 97.5781C121.641 97.2656 126.641 96.1719 131.016 94.2969C135.547 92.4219 139.219 89.5312 142.031 85.625C144.844 81.7187 146.25 76.1719 146.25 68.9844C146.25 61.6406 145.312 55.7031 143.438 51.1719C141.562 46.6406 138.828 43.125 135.234 40.625C131.797 37.9687 127.422 36.25 122.109 35.4687C116.797 34.5312 110.781 34.0625 104.062 34.0625C90.3125 34.0625 76.4844 34.6875 62.5781 35.9375C48.6719 37.1875 35.0781 39.5312 21.7969 42.9687C21.4844 41.7187 21.25 40.625 21.0938 39.6875C20.9375 38.5937 20.5469 37.6562 19.9219 36.875C19.9219 35.9375 20.7812 35.0781 22.5 34.2969C24.2188 33.5156 26.1719 32.8906 28.3594 32.4219C30.5469 31.9531 32.5781 31.5625 34.4531 31.25C36.4844 30.9375 37.8125 30.7031 38.4375 30.5469V27.7344C37.3438 27.8906 35.4688 28.0469 32.8125 28.2031C30.1562 28.3594 27.2656 28.4375 24.1406 28.4375C19.9219 28.4375 16.0156 28.2031 12.4219 27.7344C8.82812 27.1094 7.03125 25.9375 7.03125 24.2187C7.03125 22.3437 9.0625 20.5469 13.125 18.8281C17.3437 17.1094 22.6563 15.5469 29.0625 14.1406C35.4688 12.5781 42.5 11.25 50.1562 10.1562C57.8125 9.06249 65.1562 8.12498 72.1875 7.34372C79.375 6.40622 85.7031 5.78122 91.1719 5.46874C96.7969 4.99997 100.703 4.76559 102.891 4.76559C114.141 4.76559 124.297 5.93747 133.359 8.28122C142.422 10.4687 150.078 14.1406 156.328 19.2969C162.734 24.4531 167.578 31.25 170.859 39.6875C174.297 47.9687 176.016 58.2031 176.016 70.3906C176.016 80.5469 174.062 89.2187 170.156 96.4062C166.406 103.437 161.328 109.219 154.922 113.75C148.516 118.125 141.172 121.406 132.891 123.594C124.609 125.625 116.016 126.641 107.109 126.641C104.609 126.641 102.109 126.562 99.6094 126.406C97.2656 126.25 94.8438 126.094 92.3438 125.937C94.0625 127.031 96.875 128.516 100.781 130.391C104.844 132.266 109.297 134.375 114.141 136.719C119.141 139.062 124.297 141.562 129.609 144.219C135.078 146.719 140 149.219 144.375 151.719C148.75 154.062 152.344 156.328 155.156 158.516C157.969 160.547 159.375 162.187 159.375 163.437L158.203 164.844C153.047 161.094 147.734 157.812 142.266 155C136.797 152.187 131.172 149.531 125.391 147.031C119.766 144.531 114.063 142.109 108.281 139.766C102.813 137.422 97.3438 134.687 91.875 131.562C97.1875 134.687 102.5 137.422 107.812 139.766L124.453 147.266C130.078 149.766 135.547 152.422 140.859 155.234C146.328 157.891 151.562 161.094 156.562 164.844L153.516 167.656C154.609 168.438 155.859 169.531 157.266 170.937C158.828 172.187 160.234 173.594 161.484 175.156C162.891 176.719 164.062 178.359 165 180.078C165.938 181.641 166.406 183.125 166.406 184.531C166.406 186.562 165.469 187.578 163.594 187.578C161.719 187.578 159.688 187.031 157.5 185.937C155.312 184.844 153.359 183.984 151.641 183.359ZM100.547 99.4531C97.4219 99.4531 94.1406 99.5312 90.7031 99.6875C87.4219 99.6875 84.0625 99.6875 80.625 99.6875C84.5312 99.8437 88.5938 100.078 92.8125 100.391C97.0312 100.547 101.328 100.625 105.703 100.625C111.172 100.625 116.484 100.312 121.641 99.6875C126.953 98.9062 131.641 97.4219 135.703 95.2344C139.766 92.8906 142.969 89.7656 145.312 85.8594C147.812 81.7969 149.062 76.4844 149.062 69.9219C149.062 67.7344 148.906 65.625 148.594 63.5937C148.281 61.5625 147.891 59.4531 147.422 57.2656H146.016C146.953 61.0156 147.422 64.8437 147.422 68.75C147.422 75.7812 146.172 81.3281 143.672 85.3906C141.172 89.4531 137.812 92.5781 133.594 94.7656C129.375 96.7969 124.375 98.125 118.594 98.75C112.969 99.2187 106.953 99.4531 100.547 99.4531ZM59.0625 104.609C65.3125 104.922 71.6406 105.156 78.0469 105.312C84.6094 105.312 91.3281 105.312 98.2031 105.312C102.266 105.312 106.328 105.234 110.391 105.078C114.453 104.766 118.359 104.219 122.109 103.437C120.391 103.75 118.672 103.906 116.953 103.906H112.031C110.156 103.906 107.891 103.906 105.234 103.906C102.578 103.75 99.6875 103.594 96.5625 103.437C93.4375 103.281 90.1562 103.203 86.7188 103.203C83.2812 103.047 79.9219 102.969 76.6406 102.969C73.0469 102.969 69.7656 103.047 66.7969 103.203C63.8281 103.359 61.25 103.828 59.0625 104.609ZM50.1562 122.656C53.2812 126.719 56.4062 130.547 59.5312 134.141C62.8125 137.578 66.4844 140.859 70.5469 143.984C66.7969 141.328 62.9688 138.125 59.0625 134.375C55.3125 130.625 52.3437 126.719 50.1562 122.656ZM84.8438 120.781C87.9688 121.094 91.0938 121.328 94.2188 121.484C97.1875 121.641 100 121.797 102.656 121.953C100.469 121.797 98.2812 121.562 96.0938 121.25C93.5938 120.781 91.0938 120.547 88.5938 120.547H86.7188C86.0938 120.547 85.4688 120.625 84.8438 120.781ZM58.3594 104.609C58.2031 105.078 57.7344 106.016 56.9531 107.422C56.3281 108.828 55.625 110.391 54.8437 112.109C54.2187 113.672 53.5938 115.156 52.9688 116.562C52.3438 117.969 52.0312 118.906 52.0312 119.375L52.5 118.906L58.3594 105.312V104.609ZM82.7344 125.234H82.0312C84.2188 126.953 86.7188 128.594 89.5312 130.156L82.7344 125.234ZM53.9062 121.25C54.2188 122.031 54.6875 122.969 55.3125 124.062C56.0938 125 57.0312 126.016 58.125 127.109C57.1875 126.016 56.4062 124.922 55.7812 123.828C55.1562 122.578 54.6875 121.406 54.375 120.312L53.9062 121.25ZM81.5625 144.922C82.0312 145.234 82.4219 145.469 82.7344 145.625L81.5625 144.922ZM306.677 165.781C306.364 169.687 304.802 173.125 301.989 176.094C299.333 178.906 295.973 181.328 291.911 183.359C288.005 185.234 283.786 186.641 279.255 187.578C274.88 188.516 270.895 188.984 267.302 188.984C256.677 188.984 247.145 186.484 238.708 181.484C230.27 176.328 223.083 169.766 217.145 161.797C211.208 153.672 206.52 144.688 203.083 134.844C199.802 125.312 197.927 115.937 197.458 106.719C197.77 116.25 199.567 125.859 202.848 135.547C206.286 145.547 210.973 154.609 216.911 162.734C222.848 170.859 230.114 177.5 238.708 182.656C247.302 187.656 256.989 190.156 267.77 190.156C273.708 190.156 279.489 189.219 285.114 187.344C290.739 185.469 295.973 182.891 300.817 179.609C297.223 185.078 292.458 188.984 286.52 191.328C280.583 193.672 274.489 194.844 268.239 194.844C261.208 194.844 254.723 193.828 248.786 191.797C242.848 189.922 237.067 186.875 231.442 182.656L230.505 178.906C224.098 175 218.552 170.156 213.864 164.375C209.333 158.594 205.583 152.344 202.614 145.625C199.802 138.906 197.692 131.875 196.286 124.531C195.036 117.187 194.411 109.844 194.411 102.5C194.411 94.6875 195.114 86.9531 196.52 79.2969C198.083 71.4844 200.192 63.8281 202.848 56.3281C202.223 56.3281 201.911 56.0937 201.911 55.625C198.63 62.8125 196.208 70.2344 194.645 77.8906C193.083 85.5469 192.302 93.3594 192.302 101.328C192.302 116.484 195.27 131.094 201.208 145.156C207.145 159.062 215.973 170.859 227.692 180.547C221.598 175.859 216.208 170.469 211.52 164.375C206.989 158.281 203.239 151.797 200.27 144.922C197.302 137.891 195.036 130.625 193.473 123.125C192.067 115.625 191.364 108.047 191.364 100.391C191.364 90.0781 192.77 79.6094 195.583 68.9844C198.552 58.2031 202.927 48.4375 208.708 39.6875C214.645 30.9375 221.989 23.8281 230.739 18.3594C239.489 12.7344 249.723 9.92186 261.442 9.92186C266.755 9.92186 271.755 10.7812 276.442 12.5C281.286 14.2187 285.817 16.4844 290.036 19.2969C294.255 22.1094 298.161 25.3125 301.755 28.9062C305.505 32.5 309.02 36.1719 312.302 39.9219L307.38 44.1406C305.192 43.3594 303.083 42.1875 301.052 40.625C299.177 38.9062 297.458 37.1875 295.895 35.4687L294.489 37.1094C296.52 39.4531 298.395 42.1875 300.114 45.3125C301.833 48.2812 302.692 51.4062 302.692 54.6875L300.114 58.9062C298.083 58.75 295.505 57.5781 292.38 55.3906C289.411 53.0469 286.052 50.625 282.302 48.125C278.708 45.4687 274.958 43.0469 271.052 40.8594C267.302 38.6719 263.63 37.5781 260.036 37.5781C255.348 37.5781 251.13 38.75 247.38 41.0937C243.786 43.4375 240.505 46.4844 237.536 50.2344C234.567 53.9844 231.989 58.2812 229.802 63.125C227.77 67.9687 226.052 72.8906 224.645 77.8906C223.395 82.8906 222.38 87.8125 221.598 92.6562C220.973 97.3437 220.661 101.484 220.661 105.078C220.661 111.172 221.598 117.891 223.473 125.234C225.505 132.578 228.395 139.453 232.145 145.859C236.052 152.109 240.817 157.344 246.442 161.562C252.067 165.781 258.473 167.891 265.661 167.891C268.942 167.891 272.302 167.578 275.739 166.953C279.333 166.172 282.536 164.922 285.348 163.203L287.223 165.312C281.286 169.844 274.489 172.109 266.833 172.109C259.333 172.109 252.458 170.312 246.208 166.719C249.177 168.75 252.458 170.234 256.052 171.172C259.958 172.266 263.864 172.812 267.77 172.812C274.958 172.812 281.677 170.781 287.927 166.719L290.036 169.766C291.598 168.047 293.552 166.406 295.895 164.844C298.239 163.125 300.661 162.109 303.161 161.797L306.677 165.781ZM217.145 118.672C217.927 127.734 220.583 136.406 225.114 144.687C229.645 152.812 235.583 159.375 242.927 164.375C235.583 159.219 229.802 152.578 225.583 144.453C221.208 136.172 218.395 127.578 217.145 118.672Z" fill="#F0F0F0"/>
<path d="M373.575 14C388.275 14 398.675 21.9 398.675 35.4C398.675 44.1 393.275 50.2 386.275 52.2C393.575 53.3 396.775 57 397.475 64.5L399.275 85H386.175L384.675 66.4C384.175 60.2 380.475 58.2 371.475 58.2H356.875V85H343.875V14H373.575ZM356.875 46.8H372.175C380.575 46.8 385.275 43.1 385.275 36.2C385.275 29.2 380.575 25.3 372.175 25.3H356.875V46.8ZM409.723 48.2C411.823 37.1 420.323 30.8 433.423 30.8C448.723 30.8 456.723 38.7 456.723 53.6V71.8C456.723 74.8 458.023 75.7 460.023 75.7H462.123V85L459.123 85.1C455.023 85.2 446.623 85.3 445.623 76.9C443.123 82.2 437.123 86.2 427.923 86.2C417.223 86.2 408.823 80.5 408.823 71.1C408.823 60.9 416.523 57.4 429.023 55L443.823 52.1C443.823 43.9 440.323 40 433.423 40C427.723 40 424.023 43.1 422.823 48.9L409.723 48.2ZM422.123 70.7C422.123 74.3 425.223 77.2 431.423 77.2C438.623 77.2 444.123 71.9 444.123 61.5V60.8L434.023 62.6C427.323 63.8 422.123 64.7 422.123 70.7ZM477.674 30.6C477.674 19.9 482.874 14 494.674 14H504.574V23.9H496.174C492.874 23.9 490.574 26.5 490.574 30.6V33.5H503.774V43.4H490.574V85H477.674V43.4H470.074V33.5H477.674V30.6ZM511.285 48.2C513.385 37.1 521.885 30.8 534.985 30.8C550.285 30.8 558.285 38.7 558.285 53.6V71.8C558.285 74.8 559.585 75.7 561.585 75.7H563.685V85L560.685 85.1C556.585 85.2 548.185 85.3 547.185 76.9C544.685 82.2 538.685 86.2 529.485 86.2C518.785 86.2 510.385 80.5 510.385 71.1C510.385 60.9 518.085 57.4 530.585 55L545.385 52.1C545.385 43.9 541.885 40 534.985 40C529.285 40 525.585 43.1 524.385 48.9L511.285 48.2ZM523.685 70.7C523.685 74.3 526.785 77.2 532.985 77.2C540.185 77.2 545.685 71.9 545.685 61.5V60.8L535.585 62.6C528.885 63.8 523.685 64.7 523.685 70.7ZM569.955 58.5C569.955 41.7 580.355 30.8 596.255 30.8C609.955 30.8 620.955 40.2 621.155 58.9V62H583.455C584.055 70.8 588.655 76.1 596.255 76.1C601.055 76.1 605.455 73.3 607.355 68.7L620.455 69.7C617.255 79.8 607.655 86.2 596.255 86.2C580.355 86.2 569.955 75.3 569.955 58.5ZM583.555 53.5H607.955C606.955 44.4 601.955 40.9 596.255 40.9C589.155 40.9 584.555 45.6 583.555 53.5ZM632.328 14H645.128V71.2C645.128 73.7 646.528 75.1 649.028 75.1H653.028V85H645.728C637.728 85 632.328 80 632.328 71.7V14Z" fill="#F0F0F0"/>
<path d="M403.875 161.2C401.075 177.5 390.475 187.6 373.775 187.6C352.975 187.6 340.175 171.5 340.175 150.6C340.175 129.6 352.875 113.4 373.775 113.4C389.675 113.4 400.375 122.9 403.475 138.6L389.875 139.2C387.975 130 382.075 124.7 373.575 124.7C359.775 124.7 353.675 136.2 353.675 150.6C353.675 164.9 359.875 176.3 373.575 176.3C382.475 176.3 388.475 170.6 390.175 160.5L403.875 161.2ZM412.652 149.2C414.752 138.1 423.252 131.8 436.352 131.8C451.652 131.8 459.652 139.7 459.652 154.6V172.8C459.652 175.8 460.952 176.7 462.952 176.7H465.052V186L462.052 186.1C457.952 186.2 449.552 186.3 448.552 177.9C446.052 183.2 440.052 187.2 430.852 187.2C420.152 187.2 411.752 181.5 411.752 172.1C411.752 161.9 419.452 158.4 431.952 156L446.752 153.1C446.752 144.9 443.252 141 436.352 141C430.652 141 426.952 144.1 425.752 149.9L412.652 149.2ZM425.052 171.7C425.052 175.3 428.152 178.2 434.352 178.2C441.552 178.2 447.052 172.9 447.052 162.5V161.8L436.952 163.6C430.252 164.8 425.052 165.7 425.052 171.7ZM474.418 133H486.418L486.718 143.4C488.718 136.4 492.718 133 499.518 133H504.418V142.9H499.418C490.918 142.9 487.218 147.3 487.218 155.8V186H474.418V133ZM564.931 133L545.331 186H530.231L510.731 133H523.931L537.731 173L551.531 133H564.931ZM570.074 149.2C572.174 138.1 580.674 131.8 593.774 131.8C609.074 131.8 617.074 139.7 617.074 154.6V172.8C617.074 175.8 618.374 176.7 620.374 176.7H622.474V186L619.474 186.1C615.374 186.2 606.974 186.3 605.974 177.9C603.474 183.2 597.474 187.2 588.274 187.2C577.574 187.2 569.174 181.5 569.174 172.1C569.174 161.9 576.874 158.4 589.374 156L604.174 153.1C604.174 144.9 600.674 141 593.774 141C588.074 141 584.374 144.1 583.174 149.9L570.074 149.2ZM582.474 171.7C582.474 175.3 585.574 178.2 591.774 178.2C598.974 178.2 604.474 172.9 604.474 162.5V161.8L594.374 163.6C587.674 164.8 582.474 165.7 582.474 171.7ZM666.445 152.5C665.445 145.9 660.645 142.2 655.045 142.2C646.745 142.2 642.045 148.6 642.045 159.5C642.045 170.4 646.745 176.8 655.045 176.8C660.945 176.8 665.645 173 666.645 165.8L679.945 166.4C678.445 179.2 668.245 187.2 655.045 187.2C639.145 187.2 628.745 176.3 628.745 159.5C628.745 142.7 639.145 131.8 655.045 131.8C667.845 131.8 678.245 139.4 679.645 151.8L666.445 152.5ZM688.578 115H701.378V140.1C704.478 134.1 710.278 131.8 716.778 131.8C727.778 131.8 734.678 139.8 734.678 151.9V186H721.878V156.5C721.878 147.4 719.178 142.6 712.578 142.6C705.578 142.6 701.378 147.5 701.378 156.5V186H688.578V115ZM770.767 187.2C754.867 187.2 744.467 176.3 744.467 159.5C744.467 142.7 754.867 131.8 770.767 131.8C786.567 131.8 796.967 142.7 796.967 159.5C796.967 176.3 786.567 187.2 770.767 187.2ZM757.767 159.5C757.767 170.4 762.467 176.8 770.767 176.8C778.967 176.8 783.767 170.4 783.767 159.5C783.767 148.6 778.967 142.2 770.767 142.2C762.467 142.2 757.767 148.6 757.767 159.5Z" fill="#F0F0F0"/>
</g>
<defs>
<clipPath id="clip0_10_167">
<rect width="801.875" height="200" fill="white"/>
</clipPath>
</defs>
</svg>
