<svg width="335" height="209" viewBox="0 0 335 209" fill="none" xmlns="http://www.w3.org/2000/svg">
  <path d="M158.632 196.064C157.267 193.504 154.877 190.944 151.464 188.384C148.051 185.653 143.955 183.008 139.176 180.448C134.397 177.888 129.277 175.413 123.816 173.024C118.355 170.635 112.979 168.331 107.688 166.112C102.397 163.723 97.448 161.504 92.84 159.456C89.5973 158.091 86.7813 156.725 84.392 155.36C89.3413 158.261 94.5467 160.907 100.008 163.296C106.323 166.197 112.637 169.184 118.952 172.256C125.437 175.328 131.667 178.571 137.64 181.984C143.613 185.397 149.075 189.323 154.024 193.76C149.075 192.395 142.845 190.176 135.336 187.104C127.827 183.861 120.147 180.363 112.296 176.608C104.616 172.683 97.1067 168.757 89.768 164.832C82.6 160.907 76.7973 157.493 72.36 154.592L74.152 152.288C69.3733 149.045 64.5093 145.291 59.56 141.024C54.6107 136.757 50.7707 132.064 48.04 126.944C46.1627 134.965 45.0533 142.645 44.712 149.984C44.3707 157.323 44.2 164.32 44.2 170.976C44.2 173.365 44.7973 175.669 45.992 177.888C47.1867 179.936 47.784 181.899 47.784 183.776C47.784 186.336 46.5893 187.872 44.2 188.384C42.8347 185.141 41.8107 181.899 41.128 178.656C40.4453 175.413 39.9333 172.171 39.592 168.928C39.592 172.341 39.7627 175.669 40.104 178.912C40.616 182.325 41.4693 185.739 42.664 189.152L38.824 190.688L41.128 193.76C40.7867 195.637 40.0187 197.429 38.824 199.136C37.8 200.672 36.1787 201.44 33.96 201.44C31.2293 201.44 29.0107 199.989 27.304 197.088C25.768 194.016 24.488 190.432 23.464 186.336C22.6107 182.069 22.0133 177.803 21.672 173.536C21.5013 169.099 21.416 165.429 21.416 162.528C21.416 156.725 21.416 151.008 21.416 145.376C21.5867 139.744 21.8427 134.027 22.184 128.224C21.3307 133.685 20.8187 139.232 20.648 144.864C20.648 150.496 20.648 156.128 20.648 161.76C20.648 167.733 20.9893 173.877 21.672 180.192C22.3547 186.507 23.3787 192.565 24.744 198.368C22.5253 196.32 20.8187 194.016 19.624 191.456C18.6 188.896 17.7467 186.251 17.064 183.52C16.552 180.619 16.1253 177.717 15.784 174.816C15.6133 171.915 15.4427 169.099 15.272 166.368L18.344 165.6C17.6613 163.04 17.2347 160.48 17.064 157.92C16.8933 155.189 16.808 152.459 16.808 149.728C16.808 143.755 17.2347 137.952 18.088 132.32C18.9413 126.517 19.368 120.629 19.368 114.656V111.584L19.112 105.184H17.576C17.2347 113.376 16.7227 121.568 16.04 129.76C15.528 137.952 15.1867 146.229 15.016 154.592C14.8453 152.885 14.76 151.264 14.76 149.728V144.864C14.76 132.405 15.3573 120.203 16.552 108.256C17.9173 96.1387 19.2827 83.936 20.648 71.648C20.9893 67.7227 22.0133 64.1387 23.72 60.896C25.4267 57.4827 26.792 53.984 27.816 50.4C28.4987 50.912 29.352 51.2533 30.376 51.424C31.4 51.424 32.3387 51.5093 33.192 51.68C34.0453 51.68 34.8133 51.936 35.496 52.448C36.1787 52.96 36.52 53.8133 36.52 55.008C36.52 55.6907 36.4347 56.3733 36.264 57.056L35.752 59.104L38.056 59.872C39.2507 57.9947 40.7867 56.2027 42.664 54.496C44.5413 52.7893 46.6747 51.936 49.064 51.936C50.9413 51.936 52.3067 52.704 53.16 54.24C54.0133 55.776 54.44 57.3973 54.44 59.104C54.44 60.128 54.2693 62.2613 53.928 65.504C53.7573 68.7467 53.416 72.5013 52.904 76.768C52.5627 81.0347 52.136 85.6427 51.624 90.592C51.112 95.3707 50.6 99.8933 50.088 104.16C49.7467 108.427 49.4053 112.096 49.064 115.168C48.7227 118.069 48.552 119.861 48.552 120.544L54.696 106.72C54.184 108.256 53.672 109.536 53.16 110.56C52.8187 111.584 52.4773 112.608 52.136 113.632C51.7947 114.656 51.2827 115.765 50.6 116.96C50.088 118.155 49.32 119.691 48.296 121.568V125.152L56.744 105.952C59.4747 105.952 62.12 105.952 64.68 105.952C67.4107 105.781 70.1413 105.44 72.872 104.928L75.432 104.416C71.6773 104.416 68.6907 104.416 66.472 104.416C64.424 104.245 62.4613 103.989 60.584 103.648C67.4107 103.648 74.152 103.563 80.808 103.392C87.6347 103.051 94.5467 102.88 101.544 102.88C107.688 102.88 113.747 102.709 119.72 102.368C125.864 102.027 131.325 100.832 136.104 98.784C141.053 96.736 145.064 93.5787 148.136 89.312C151.208 85.0453 152.744 78.9867 152.744 71.136C152.744 63.1147 151.72 56.6293 149.672 51.68C147.624 46.7307 144.637 42.8907 140.712 40.16C136.957 37.2587 132.179 35.3813 126.376 34.528C120.573 33.504 114.003 32.992 106.664 32.992C91.6453 32.992 76.5413 33.6747 61.352 35.04C46.1627 36.4053 31.3147 38.9653 16.808 42.72C16.4667 41.3547 16.2107 40.16 16.04 39.136C15.8693 37.9413 15.4427 36.9173 14.76 36.064C14.76 35.04 15.6987 34.1013 17.576 33.248C19.4533 32.3947 21.5867 31.712 23.976 31.2C26.3653 30.688 28.584 30.2613 30.632 29.92C32.8507 29.5787 34.3013 29.3227 34.984 29.152V26.08C33.7893 26.2507 31.7413 26.4213 28.84 26.592C25.9387 26.7627 22.7813 26.848 19.368 26.848C14.76 26.848 10.4933 26.592 6.568 26.08C2.64267 25.3973 0.68 24.1173 0.68 22.24C0.68 20.192 2.89867 18.2293 7.336 16.352C11.944 14.4747 17.7467 12.768 24.744 11.232C31.7413 9.52533 39.4213 8.07466 47.784 6.87999C56.1467 5.68533 64.168 4.66133 71.848 3.80798C79.6987 2.78399 86.6107 2.10132 92.584 1.75999C98.728 1.24799 102.995 0.991989 105.384 0.991989C117.672 0.991989 128.765 2.27199 138.664 4.83199C148.563 7.22132 156.925 11.232 163.752 16.864C170.749 22.496 176.04 29.92 179.624 39.136C183.379 48.1813 185.256 59.36 185.256 72.672C185.256 83.7653 183.123 93.2373 178.856 101.088C174.76 108.768 169.213 115.083 162.216 120.032C155.219 124.811 147.197 128.395 138.152 130.784C129.107 133.003 119.72 134.112 109.992 134.112C107.261 134.112 104.531 134.027 101.8 133.856C99.24 133.685 96.5947 133.515 93.864 133.344C95.7413 134.539 98.8133 136.16 103.08 138.208C107.517 140.256 112.381 142.56 117.672 145.12C123.133 147.68 128.765 150.411 134.568 153.312C140.541 156.043 145.917 158.773 150.696 161.504C155.475 164.064 159.4 166.539 162.472 168.928C165.544 171.147 167.08 172.939 167.08 174.304L165.8 175.84C160.168 171.744 154.365 168.16 148.392 165.088C142.419 162.016 136.275 159.115 129.96 156.384C123.816 153.653 117.587 151.008 111.272 148.448C105.299 145.888 99.3253 142.901 93.352 139.488C99.1547 142.901 104.957 145.888 110.76 148.448L128.936 156.64C135.08 159.371 141.053 162.272 146.856 165.344C152.829 168.245 158.547 171.744 164.008 175.84L160.68 178.912C161.875 179.765 163.24 180.96 164.776 182.496C166.483 183.861 168.019 185.397 169.384 187.104C170.92 188.811 172.2 190.603 173.224 192.48C174.248 194.187 174.76 195.808 174.76 197.344C174.76 199.563 173.736 200.672 171.688 200.672C169.64 200.672 167.421 200.075 165.032 198.88C162.643 197.685 160.509 196.747 158.632 196.064ZM102.824 104.416C99.4107 104.416 95.8267 104.501 92.072 104.672C88.488 104.672 84.8187 104.672 81.064 104.672C85.3307 104.843 89.768 105.099 94.376 105.44C98.984 105.611 103.677 105.696 108.456 105.696C114.429 105.696 120.232 105.355 125.864 104.672C131.667 103.819 136.787 102.197 141.224 99.808C145.661 97.248 149.16 93.8347 151.72 89.568C154.451 85.1307 155.816 79.328 155.816 72.16C155.816 69.7707 155.645 67.4667 155.304 65.248C154.963 63.0293 154.536 60.7253 154.024 58.336H152.488C153.512 62.432 154.024 66.6133 154.024 70.88C154.024 78.56 152.659 84.6187 149.928 89.056C147.197 93.4933 143.528 96.9067 138.92 99.296C134.312 101.515 128.851 102.965 122.536 103.648C116.392 104.16 109.821 104.416 102.824 104.416ZM57.512 110.048C64.3387 110.389 71.2507 110.645 78.248 110.816C85.416 110.816 92.7547 110.816 100.264 110.816C104.701 110.816 109.139 110.731 113.576 110.56C118.013 110.219 122.28 109.621 126.376 108.768C124.499 109.109 122.621 109.28 120.744 109.28H115.368C113.32 109.28 110.845 109.28 107.944 109.28C105.043 109.109 101.885 108.939 98.472 108.768C95.0587 108.597 91.4747 108.512 87.72 108.512C83.9653 108.341 80.296 108.256 76.712 108.256C72.7867 108.256 69.2027 108.341 65.96 108.512C62.7173 108.683 59.9013 109.195 57.512 110.048ZM47.784 129.76C51.1973 134.197 54.6107 138.379 58.024 142.304C61.608 146.059 65.6187 149.643 70.056 153.056C65.96 150.155 61.7787 146.656 57.512 142.56C53.416 138.464 50.1733 134.197 47.784 129.76ZM85.672 127.712C89.0853 128.053 92.4987 128.309 95.912 128.48C99.1547 128.651 102.227 128.821 105.128 128.992C102.739 128.821 100.349 128.565 97.96 128.224C95.2293 127.712 92.4987 127.456 89.768 127.456H87.72C87.0373 127.456 86.3547 127.541 85.672 127.712ZM56.744 110.048C56.5733 110.56 56.0613 111.584 55.208 113.12C54.5253 114.656 53.7573 116.363 52.904 118.24C52.2213 119.947 51.5387 121.568 50.856 123.104C50.1733 124.64 49.832 125.664 49.832 126.176L50.344 125.664L56.744 110.816V110.048ZM83.368 132.576H82.6C84.9893 134.453 87.72 136.245 90.792 137.952L83.368 132.576ZM51.88 128.224C52.2213 129.077 52.7333 130.101 53.416 131.296C54.2693 132.32 55.2933 133.429 56.488 134.624C55.464 133.429 54.6107 132.235 53.928 131.04C53.2453 129.675 52.7333 128.395 52.392 127.2L51.88 128.224ZM82.088 154.08C82.6 154.421 83.0267 154.677 83.368 154.848L82.088 154.08ZM327.972 176.864C327.631 181.131 325.924 184.885 322.852 188.128C319.951 191.2 316.281 193.845 311.844 196.064C307.577 198.112 302.969 199.648 298.02 200.672C293.241 201.696 288.889 202.208 284.964 202.208C273.359 202.208 262.948 199.477 253.732 194.016C244.516 188.384 236.665 181.216 230.18 172.512C223.695 163.637 218.575 153.824 214.82 143.072C211.236 132.661 209.188 122.421 208.676 112.352C209.017 122.763 210.98 133.259 214.564 143.84C218.319 154.763 223.439 164.661 229.924 173.536C236.409 182.411 244.345 189.664 253.732 195.296C263.119 200.757 273.7 203.488 285.476 203.488C291.961 203.488 298.276 202.464 304.42 200.416C310.564 198.368 316.281 195.552 321.572 191.968C317.647 197.941 312.441 202.208 305.956 204.768C299.471 207.328 292.815 208.608 285.988 208.608C278.308 208.608 271.225 207.499 264.74 205.28C258.255 203.232 251.94 199.904 245.796 195.296L244.772 191.2C237.775 186.933 231.716 181.643 226.596 175.328C221.647 169.013 217.551 162.187 214.308 154.848C211.236 147.509 208.932 139.829 207.396 131.808C206.031 123.787 205.348 115.765 205.348 107.744C205.348 99.2107 206.116 90.7627 207.652 82.4C209.359 73.8667 211.663 65.504 214.564 57.312C213.881 57.312 213.54 57.056 213.54 56.544C209.956 64.3947 207.311 72.5013 205.604 80.864C203.897 89.2267 203.044 97.76 203.044 106.464C203.044 123.019 206.287 138.976 212.772 154.336C219.257 169.525 228.9 182.411 241.7 192.992C235.044 187.872 229.156 181.984 224.036 175.328C219.087 168.672 214.991 161.589 211.748 154.08C208.505 146.4 206.031 138.464 204.324 130.272C202.788 122.08 202.02 113.803 202.02 105.44C202.02 94.176 203.556 82.7413 206.628 71.136C209.871 59.36 214.649 48.6933 220.964 39.136C227.449 29.5787 235.471 21.8133 245.028 15.84C254.585 9.69599 265.764 6.62399 278.564 6.62399C284.367 6.62399 289.828 7.56266 294.948 9.43999C300.239 11.3173 305.188 13.792 309.796 16.864C314.404 19.936 318.671 23.4347 322.596 27.36C326.692 31.2853 330.532 35.296 334.116 39.392L328.74 44C326.351 43.1467 324.047 41.8667 321.828 40.16C319.78 38.2827 317.903 36.4053 316.196 34.528L314.66 36.32C316.879 38.88 318.927 41.8667 320.804 45.28C322.681 48.5227 323.62 51.936 323.62 55.52L320.804 60.128C318.585 59.9573 315.769 58.6773 312.356 56.288C309.113 53.728 305.444 51.0827 301.348 48.352C297.423 45.4507 293.327 42.8053 289.06 40.416C284.964 38.0267 280.953 36.832 277.028 36.832C271.908 36.832 267.3 38.112 263.204 40.672C259.279 43.232 255.695 46.56 252.452 50.656C249.209 54.752 246.393 59.4453 244.004 64.736C241.785 70.0267 239.908 75.4027 238.372 80.864C237.007 86.3253 235.897 91.7013 235.044 96.992C234.361 102.112 234.02 106.635 234.02 110.56C234.02 117.216 235.044 124.555 237.092 132.576C239.311 140.597 242.468 148.107 246.564 155.104C250.831 161.931 256.036 167.648 262.18 172.256C268.324 176.864 275.321 179.168 283.172 179.168C286.756 179.168 290.425 178.827 294.18 178.144C298.105 177.291 301.604 175.925 304.676 174.048L306.724 176.352C300.239 181.301 292.815 183.776 284.452 183.776C276.26 183.776 268.751 181.813 261.924 177.888C265.167 180.107 268.751 181.728 272.676 182.752C276.943 183.947 281.209 184.544 285.476 184.544C293.327 184.544 300.665 182.325 307.492 177.888L309.796 181.216C311.503 179.339 313.636 177.547 316.196 175.84C318.756 173.963 321.401 172.853 324.132 172.512L327.972 176.864ZM230.18 125.408C231.033 135.307 233.935 144.779 238.884 153.824C243.833 162.699 250.319 169.867 258.34 175.328C250.319 169.696 244.004 162.443 239.396 153.568C234.617 144.523 231.545 135.136 230.18 125.408Z" fill="#F0F0F0"/>
</svg>